# xmcd
#
# Track frame offsets: 
#        150
#        13181
#        30761
#        52053
#        67295
#        80359
#        93024
#        108704
#        120969
#        143810
#        193017
#        233316
#
# Disc length: 3727 seconds
#
# Revision: 0
# Processed by: cddbd v1.5PL3 Copyright (c) Steve Scherf et al.
# Submitted via: ExactAudioCopy v0.90b4
#
DISCID=930e8d0c
DTITLE=Canned Heat - Boogie with Canned Heat
DYEAR=1968
DGENRE=Blues
TTITLE0=Evil Woman
TTITLE1=My Crime
TTITLE2=On the Road Again
TTITLE3=World in a Jug
TTITLE4=Turpentine Moan: Piano - Sunny Land Slim
TTITLE5=Whiskey Headed Woman No. 2
TTITLE6=Amphetamine Annie
TTITLE7=An Owl Song
TTITLE8=Marie Laveau
TTITLE9=Fried Hockey Boogie
TTITLE10=When Things Go Wrong (bonus)
TTITLE11=Sweet Sixteen
EXTD=
EXTT0=
EXTT1=
EXTT2=
EXTT3=
EXTT4=
EXTT5=
EXTT6=
EXTT7=
EXTT8=
EXTT9=
EXTT10=
EXTT11=
PLAYORDER=
